<svg xmlns="http://www.w3.org/2000/svg" xmlns:xlink="http://www.w3.org/1999/xlink" version="1.1" data-diagram-type="CLASS" style="width:1323px;height:766px;background:#FFFFFF;" width="1323px" height="766px" viewBox="0 0 1323 766" zoomAndPan="magnify" preserveAspectRatio="none" contentStyleType="text/css"><?plantuml 1.2026.8?><defs/><g font-family="sans-serif" lengthAdjust="spacing"><g class="title" data-source-line="2"><text x="225.543" y="29.424" fill="#00386C" font-size="18" textLength="864.914" font-weight="700" font-family="'Segoe UI'">GSB-CR — Diagramme d'objets : un compte-rendu validé de Louis Villechalane (exemple d'instantané)</text></g><g class="entity" data-qualified-name="sud" id="ent0001" data-source-line="11"><rect x="6" y="422.941" width="98.695" height="59.883" fill="#E8F1FA" style="stroke:#00529B;stroke-width:0.5;" rx="3" ry="3"/><text x="16.383" y="437.891" fill="#1F2933" font-size="12" textLength="77.93" font-family="'Segoe UI'">ouest : Secteur</text><line x1="7" y1="442.902" x2="103.695" y2="442.902" style="stroke:#00529B;stroke-width:0.5;"/><text x="12" y="459.852" fill="#1F2933" font-size="12" textLength="59.156" font-family="'Segoe UI'">code = "O"</text><text x="12" y="475.813" fill="#1F2933" font-size="12" textLength="86.695" font-family="'Segoe UI'">libelle = "Ouest"</text></g><g class="entity" data-qualified-name="aqu" id="ent0002" data-source-line="15"><rect x="35" y="569.941" width="111" height="59.883" fill="#E8F1FA" style="stroke:#00529B;stroke-width:0.5;" rx="3" ry="3"/><text x="57.307" y="584.891" fill="#1F2933" font-size="12" textLength="66.387" font-family="'Segoe UI'">aqu : Region</text><line x1="36" y1="589.902" x2="145" y2="589.902" style="stroke:#00529B;stroke-width:0.5;"/><text x="41" y="606.852" fill="#1F2933" font-size="12" textLength="75.141" font-family="'Segoe UI'">code = "AQU"</text><text x="41" y="622.813" fill="#1F2933" font-size="12" textLength="99" font-family="'Segoe UI'">nom = "Aquitaine"</text></g><g class="entity" data-qualified-name="louis" id="ent0003" data-source-line="19"><rect x="288" y="235.941" width="138.967" height="123.727" fill="#E8F1FA" style="stroke:#00529B;stroke-width:0.5;" rx="3" ry="3"/><text x="304.509" y="250.891" fill="#1F2933" font-size="12" textLength="105.949" font-family="'Segoe UI'">louis : Collaborateur</text><line x1="289" y1="255.902" x2="425.967" y2="255.902" style="stroke:#00529B;stroke-width:0.5;"/><text x="294" y="272.852" fill="#1F2933" font-size="12" textLength="98.807" font-family="'Segoe UI'">matricule = "a131"</text><text x="294" y="288.813" fill="#1F2933" font-size="12" textLength="111.316" font-family="'Segoe UI'">nom = "Villechalane"</text><text x="294" y="304.773" fill="#1F2933" font-size="12" textLength="93.322" font-family="'Segoe UI'">prenom = "Louis"</text><text x="294" y="320.734" fill="#1F2933" font-size="12" textLength="115.061" font-family="'Segoe UI'">login = "lvillechalane"</text><text x="294" y="336.695" fill="#1F2933" font-size="12" textLength="88.102" font-family="'Segoe UI'">verrouille = false</text><text x="294" y="352.656" fill="#1F2933" font-size="12" textLength="126.967" font-family="'Segoe UI'">nbEchecsConnexion = 0</text></g><g class="entity" data-qualified-name="aff1" id="ent0004" data-source-line="27"><rect x="123.5" y="414.941" width="144" height="75.844" fill="#E8F1FA" style="stroke:#00529B;stroke-width:0.5;" rx="3" ry="3"/><text x="151.851" y="429.891" fill="#1F2933" font-size="12" textLength="87.299" font-family="'Segoe UI'">aff1 : Affectation</text><line x1="124.5" y1="434.902" x2="266.5" y2="434.902" style="stroke:#00529B;stroke-width:0.5;"/><text x="129.5" y="451.852" fill="#1F2933" font-size="12" textLength="82.271" font-family="'Segoe UI'">profil = Visiteur</text><text x="129.5" y="467.813" fill="#1F2933" font-size="12" textLength="132" font-family="'Segoe UI'">dateDebut = 21/12/2019</text><text x="129.5" y="483.773" fill="#1F2933" font-size="12" textLength="73.248" font-family="'Segoe UI'">dateFin = null</text></g><g class="entity" data-qualified-name="martin" id="ent0005" data-source-line="32"><rect x="375" y="545.941" width="114.896" height="107.766" fill="#E8F1FA" style="stroke:#00529B;stroke-width:0.5;" rx="3" ry="3"/><text x="387.929" y="560.891" fill="#1F2933" font-size="12" textLength="89.039" font-family="'Segoe UI'">martin : Praticien</text><line x1="376" y1="565.902" x2="488.896" y2="565.902" style="stroke:#00529B;stroke-width:0.5;"/><text x="381" y="582.852" fill="#1F2933" font-size="12" textLength="62.648" font-family="'Segoe UI'">numero = 1</text><text x="381" y="598.813" fill="#1F2933" font-size="12" textLength="83.168" font-family="'Segoe UI'">nom = "Martin"</text><text x="381" y="614.773" fill="#1F2933" font-size="12" textLength="102.896" font-family="'Segoe UI'">prenom = "Hélène"</text><text x="381" y="630.734" fill="#1F2933" font-size="12" textLength="94.764" font-family="'Segoe UI'">ville = "Bordeaux"</text><text x="381" y="646.695" fill="#1F2933" font-size="12" textLength="58.465" font-family="'Segoe UI'">actif = true</text></g><g class="entity" data-qualified-name="mv" id="ent0006" data-source-line="39"><rect x="355.5" y="690.941" width="153.715" height="59.883" fill="#E8F1FA" style="stroke:#00529B;stroke-width:0.5;" rx="3" ry="3"/><text x="384.272" y="705.891" fill="#1F2933" font-size="12" textLength="96.17" font-family="'Segoe UI'">mv : TypePraticien</text><line x1="356.5" y1="710.902" x2="508.215" y2="710.902" style="stroke:#00529B;stroke-width:0.5;"/><text x="361.5" y="727.852" fill="#1F2933" font-size="12" textLength="68.338" font-family="'Segoe UI'">code = "MV"</text><text x="361.5" y="743.813" fill="#1F2933" font-size="12" textLength="141.715" font-family="'Segoe UI'">libelle = "Médecin de ville"</text></g><g class="entity" data-qualified-name="ptf" id="ent0007" data-source-line="43"><rect x="285.5" y="422.941" width="144" height="59.883" fill="#E8F1FA" style="stroke:#00529B;stroke-width:0.5;" rx="3" ry="3"/><text x="315.433" y="437.891" fill="#1F2933" font-size="12" textLength="84.135" font-family="'Segoe UI'">ptf : Portefeuille</text><line x1="286.5" y1="442.902" x2="428.5" y2="442.902" style="stroke:#00529B;stroke-width:0.5;"/><text x="291.5" y="459.852" fill="#1F2933" font-size="12" textLength="132" font-family="'Segoe UI'">dateDebut = 21/12/2019</text><text x="291.5" y="475.813" fill="#1F2933" font-size="12" textLength="73.248" font-family="'Segoe UI'">dateFin = null</text></g><g class="entity" data-qualified-name="cr" id="ent0008" data-source-line="47"><rect x="585" y="56.941" width="205.178" height="123.727" fill="#E8F1FA" style="stroke:#00529B;stroke-width:0.5;" rx="3" ry="3"/><text x="642.463" y="71.891" fill="#1F2933" font-size="12" textLength="90.252" font-family="'Segoe UI'">cr : RapportVisite</text><line x1="586" y1="76.902" x2="789.178" y2="76.902" style="stroke:#00529B;stroke-width:0.5;"/><text x="591" y="93.852" fill="#1F2933" font-size="12" textLength="69.117" font-family="'Segoe UI'">numero = 12</text><text x="591" y="109.813" fill="#1F2933" font-size="12" textLength="128.098" font-family="'Segoe UI'">dateVisite = 15/09/2026</text><text x="591" y="125.773" fill="#1F2933" font-size="12" textLength="68.01" font-family="'Segoe UI'">etat = Valide</text><text x="591" y="141.734" fill="#1F2933" font-size="12" textLength="193.178" font-family="'Segoe UI'">bilan = "Intéressée par le nouveau..."</text><text x="591" y="157.695" fill="#1F2933" font-size="12" textLength="96.486" font-family="'Segoe UI'">coefConfiance = 4</text><text x="591" y="173.656" fill="#1F2933" font-size="12" textLength="180.434" font-family="'Segoe UI'">dateProchaineVisite = 15/03/2027</text></g><g class="entity" data-qualified-name="perio" id="ent0009" data-source-line="55"><rect x="486" y="267.941" width="123.293" height="59.883" fill="#E8F1FA" style="stroke:#00529B;stroke-width:0.5;" rx="3" ry="3"/><text x="515.071" y="282.891" fill="#1F2933" font-size="12" textLength="65.15" font-family="'Segoe UI'">perio : Motif</text><line x1="487" y1="287.902" x2="608.293" y2="287.902" style="stroke:#00529B;stroke-width:0.5;"/><text x="492" y="304.852" fill="#1F2933" font-size="12" textLength="82.318" font-family="'Segoe UI'">code = "PERIO"</text><text x="492" y="320.813" fill="#1F2933" font-size="12" textLength="111.293" font-family="'Segoe UI'">libelle = "Périodicité"</text></g><g class="entity" data-qualified-name="p1" id="ent0010" data-source-line="59"><rect x="627" y="275.941" width="121.121" height="43.922" fill="#E8F1FA" style="stroke:#00529B;stroke-width:0.5;" rx="3" ry="3"/><text x="634" y="290.891" fill="#1F2933" font-size="12" textLength="107.121" font-family="'Segoe UI'">p1 : ProduitPresente</text><line x1="628" y1="295.902" x2="747.121" y2="295.902" style="stroke:#00529B;stroke-width:0.5;"/><text x="633" y="312.852" fill="#1F2933" font-size="12" textLength="49.969" font-family="'Segoe UI'">ordre = 1</text></g><g class="entity" data-qualified-name="amopil" id="ent0011" data-source-line="62"><rect x="645" y="414.941" width="166.518" height="75.844" fill="#E8F1FA" style="stroke:#00529B;stroke-width:0.5;" rx="3" ry="3"/><text x="672.431" y="429.891" fill="#1F2933" font-size="12" textLength="111.656" font-family="'Segoe UI'">amopil : Medicament</text><line x1="646" y1="434.902" x2="810.518" y2="434.902" style="stroke:#00529B;stroke-width:0.5;"/><text x="651" y="451.852" fill="#1F2933" font-size="12" textLength="133.283" font-family="'Segoe UI'">depotLegal = "AMOPIL7"</text><text x="651" y="467.813" fill="#1F2933" font-size="12" textLength="154.518" font-family="'Segoe UI'">nomCommercial = "AMOPIL"</text><text x="651" y="483.773" fill="#1F2933" font-size="12" textLength="114.34" font-family="'Segoe UI'">prixEchantillon = 1,50</text></g><g class="entity" data-qualified-name="e1" id="ent0012" data-source-line="67"><rect x="766" y="275.941" width="124.9" height="43.922" fill="#E8F1FA" style="stroke:#00529B;stroke-width:0.5;" rx="3" ry="3"/><text x="773" y="290.891" fill="#1F2933" font-size="12" textLength="110.9" font-family="'Segoe UI'">e1 : EchantillonOffert</text><line x1="767" y1="295.902" x2="889.9" y2="295.902" style="stroke:#00529B;stroke-width:0.5;"/><text x="772" y="312.852" fill="#1F2933" font-size="12" textLength="65.32" font-family="'Segoe UI'">quantite = 3</text></g><g class="entity" data-qualified-name="s1" id="ent0013" data-source-line="70"><rect x="909" y="267.941" width="150.902" height="59.883" fill="#E8F1FA" style="stroke:#00529B;stroke-width:0.5;" rx="3" ry="3"/><text x="939.472" y="282.891" fill="#1F2933" font-size="12" textLength="89.959" font-family="'Segoe UI'">s1 : SessionSaisie</text><line x1="910" y1="287.902" x2="1058.902" y2="287.902" style="stroke:#00529B;stroke-width:0.5;"/><text x="915" y="304.852" fill="#1F2933" font-size="12" textLength="138.902" font-family="'Segoe UI'">debut = 15/09/2026 17:02</text><text x="915" y="320.813" fill="#1F2933" font-size="12" textLength="121.102" font-family="'Segoe UI'">fin = 15/09/2026 17:09</text></g><g class="entity" data-qualified-name="GMN28" id="ent0029" data-source-line="91"><path d="M1078,271.941 L1078,323.824 A3,3 0 0 0 1081,326.824 L1303.574,326.824 A3,3 0 0 0 1306.574,323.824 L1306.574,278.941 L1296.574,268.941 L1144.697,268.941 L790.007,146.103 L1136.697,268.941 L1081,268.941 A3,3 0 0 0 1078,271.941" style="stroke:#C9B458;stroke-width:0.5;" fill="#FFF8DC"/><path d="M1296.574,268.941 L1296.574,277.441 A1.5,1.5 0 0 0 1298.074,278.941 L1306.574,278.941 L1296.574,268.941" style="stroke:#C9B458;stroke-width:0.5;" fill="#FFF8DC"/><text x="1084" y="286.891" fill="#000" font-size="12" textLength="161.941" font-family="'Segoe UI'">CR complet : il peut être validé</text><text x="1084" y="302.852" fill="#000" font-size="12" textLength="197.273" font-family="'Segoe UI'">(motif, bilan et confiance renseignés).</text><text x="1084" y="318.813" fill="#000" font-size="12" textLength="207.574" font-family="'Segoe UI'">Seul son auteur (louis) peut le modifier.</text></g><g class="link" data-entity-1="ent0001" data-entity-2="ent0002" id="lnk14" data-link-type="composition"><polygon points="62.583,483.284,60.102,490.055,65.398,494.949,67.879,488.178,62.583,483.284" fill="#00529B" style="stroke:#00529B;stroke-width:1;stroke-linejoin:miter;stroke-miterlimit:10;"/><path d="M65.398,494.949 C71.471,520.106 77.358,544.498 83.428,569.642" style="stroke:#00529B;stroke-width:1;" fill="none"/></g><g class="link" data-entity-1="ent0003" data-entity-2="ent0004" id="lnk15" data-link-type="composition"><polygon points="292.542,360.291,285.433,361.502,283.818,368.53,290.926,367.319,292.542,360.291" fill="#00529B" style="stroke:#00529B;stroke-width:1;stroke-linejoin:miter;stroke-miterlimit:10;"/><path d="M283.818,368.53 C264.276,386.987 252.16,398.429 234.822,414.804" style="stroke:#00529B;stroke-width:1;" fill="none"/></g><g class="link" data-entity-1="ent0004" data-entity-2="ent0002" id="lnk16" data-link-type="dependency"><polygon points="111.821,569.497,120.34,564.554,114.754,565.448,113.86,559.862,111.821,569.497" fill="#00529B" style="stroke:#00529B;stroke-width:1;stroke-linejoin:miter;stroke-miterlimit:10;"/><path d="M168.46,491.283 C150.839,515.617 131.101,542.874 114.754,565.448" style="stroke:#00529B;stroke-width:1;" fill="none"/><text x="157.5" y="523.891" fill="#38404A" font-size="12" textLength="70.594" font-family="'Segoe UI'">rattachement</text></g><g class="link" data-entity-1="ent0003" data-entity-2="ent0007" id="lnk17" data-link-type="dependency"><polygon points="357.5,422.899,361.5,413.899,357.5,417.899,353.5,413.899,357.5,422.899" fill="#00529B" style="stroke:#00529B;stroke-width:1;stroke-linejoin:miter;stroke-miterlimit:10;"/><path d="M357.5,360.291 C357.5,381.906 357.5,400.203 357.5,417.899" style="stroke:#00529B;stroke-width:1;" fill="none"/><text x="359.5" y="392.891" fill="#38404A" font-size="12" textLength="18.855" font-family="'Segoe UI'">suit</text></g><g class="link" data-entity-1="ent0007" data-entity-2="ent0005" id="lnk18" data-link-type="dependency"><polygon points="405.057,545.884,404.475,536.053,402.76,541.443,397.369,539.728,405.057,545.884" fill="#00529B" style="stroke:#00529B;stroke-width:1;stroke-linejoin:miter;stroke-miterlimit:10;"/><path d="M372.677,483.284 C381.966,501.242 391.83,520.312 402.76,541.443" style="stroke:#00529B;stroke-width:1;" fill="none"/></g><g class="link" data-entity-1="ent0005" data-entity-2="ent0006" id="lnk19" data-link-type="dependency"><polygon points="432.5,690.883,436.5,681.883,432.5,685.883,428.5,681.883,432.5,690.883" fill="#00529B" style="stroke:#00529B;stroke-width:1;stroke-linejoin:miter;stroke-miterlimit:10;"/><path d="M432.5,654.176 C432.5,666.801 432.5,674.805 432.5,685.883" style="stroke:#00529B;stroke-width:1;" fill="none"/></g><g class="link" data-entity-1="ent0008" data-entity-2="ent0003" id="lnk20" data-link-type="dependency"><polygon points="377.591,235.93,385.231,229.714,379.854,231.471,378.097,226.094,377.591,235.93" fill="#00529B" style="stroke:#00529B;stroke-width:1;stroke-linejoin:miter;stroke-miterlimit:10;"/><path d="M584.691,128.104 C526.567,137.4 455.711,157.141 405.5,198.941 C393.706,208.76 386.833,217.717 379.854,231.471" style="stroke:#00529B;stroke-width:1;" fill="none"/><text x="407.5" y="213.891" fill="#38404A" font-size="12" textLength="34.201" font-family="'Segoe UI'">auteur</text></g><g class="link" data-entity-1="ent0008" data-entity-2="ent0005" id="lnk21" data-link-type="dependency"><polygon points="436.258,545.848,440.92,537.172,436.632,540.862,432.942,536.574,436.258,545.848" fill="#00529B" style="stroke:#00529B;stroke-width:1;stroke-linejoin:miter;stroke-miterlimit:10;"/><path d="M584.745,153.045 C544.635,171.192 502.192,197.931 476.5,235.941 C459.503,261.088 443.718,446.272 436.632,540.862" style="stroke:#00529B;stroke-width:1;" fill="none"/><text x="453.5" y="392.891" fill="#38404A" font-size="12" textLength="76.102" font-family="'Segoe UI'">praticien visité</text></g><g class="link" data-entity-1="ent0008" data-entity-2="ent0009" id="lnk22" data-link-type="dependency"><polygon points="570.482,267.885,579.203,263.308,573.584,263.964,572.928,258.345,570.482,267.885" fill="#00529B" style="stroke:#00529B;stroke-width:1;stroke-linejoin:miter;stroke-miterlimit:10;"/><path d="M638.928,181.351 C615.709,210.706 592.111,240.54 573.584,263.964" style="stroke:#00529B;stroke-width:1;" fill="none"/><text x="624.5" y="213.891" fill="#38404A" font-size="12" textLength="28.096" font-family="'Segoe UI'">motif</text></g><g class="link" data-entity-1="ent0008" data-entity-2="ent0010" id="lnk23" data-link-type="composition"><polygon points="687.5,181.351,683.5,187.351,687.5,193.351,691.5,187.351,687.5,181.351" fill="#00529B" style="stroke:#00529B;stroke-width:1;stroke-linejoin:miter;stroke-miterlimit:10;"/><path d="M687.5,193.351 C687.5,226.101 687.5,252.328 687.5,275.575" style="stroke:#00529B;stroke-width:1;" fill="none"/></g><g class="link" data-entity-1="ent0010" data-entity-2="ent0011" id="lnk24" data-link-type="dependency"><polygon points="718.511,414.666,720.045,404.938,717.217,409.837,712.318,407.008,718.511,414.666" fill="#00529B" style="stroke:#00529B;stroke-width:1;stroke-linejoin:miter;stroke-miterlimit:10;"/><path d="M693.201,320.215 C699.736,344.602 709.273,380.191 717.217,409.837" style="stroke:#00529B;stroke-width:1;" fill="none"/></g><g class="link" data-entity-1="ent0008" data-entity-2="ent0012" id="lnk25" data-link-type="composition"><polygon points="736.419,181.351,737.029,188.536,743.896,190.737,743.286,183.551,736.419,181.351" fill="#00529B" style="stroke:#00529B;stroke-width:1;stroke-linejoin:miter;stroke-miterlimit:10;"/><path d="M743.896,190.737 C769.985,223.487 792.961,252.328 811.479,275.575" style="stroke:#00529B;stroke-width:1;" fill="none"/></g><g class="link" data-entity-1="ent0012" data-entity-2="ent0011" id="lnk26" data-link-type="dependency"><polygon points="752.863,414.666,761.135,409.321,755.598,410.481,754.438,404.944,752.863,414.666" fill="#00529B" style="stroke:#00529B;stroke-width:1;stroke-linejoin:miter;stroke-miterlimit:10;"/><path d="M814.595,320.215 C798.656,344.602 774.974,380.836 755.598,410.481" style="stroke:#00529B;stroke-width:1;" fill="none"/></g><g class="link" data-entity-1="ent0008" data-entity-2="ent0013" id="lnk27" data-link-type="composition"><polygon points="790.045,172.793,793.425,179.162,800.605,178.491,797.224,172.122,790.045,172.793" fill="#00529B" style="stroke:#00529B;stroke-width:1;stroke-linejoin:miter;stroke-miterlimit:10;"/><path d="M800.605,178.491 C835.835,197.501 864.61,213.991 899.5,235.941 C915.028,245.711 931.534,257.266 945.829,267.678" style="stroke:#00529B;stroke-width:1;" fill="none"/></g><?plantuml-src dLNRJYD747sVh-Wu3rcYjV7OOLcG4WbOI910E93mtfwfyNQsftleYyKAHSf7v2FY_8R_95-IKzrZTa1vYkG7zwcUkfmwLVsLCfMEDGaVFckQgDZg8gYWIVnuTpe-knN__F6d-A3aoics9L5_OvU_KV3YM4GZAjjsWSQEJ1t5McfLRpS2lgviL5xSAwsf-YYrD2JUq2ErdMOFolWW3NxRpLvH-4_AT1BU1NkkWdWgX3YLrQULiz7KPrPR9xu-VtzHNfomnRgQN8zEfmUperEW5zQ4Psp-_jqPi9CGd5h6G0DZUJ4xci-BtukY3pQoaNn0DNSuKNGZ8RtmiKvPL1QrV2z6DoCSj5eIwabd_cO4BpidyY72nIsjb3N90mD33oS__ye-Z6tJwI6g89MXeG-TE3iMo5JBfNNoEPriONUjH4bLp5d8SbuEd0xPPhX3Lx8bTIELO5VACABNhowloO5jbUjhfFR4ZfVdrKUg_9arXXvH6cpJOTLDKoBXawR1KORdsXb-IXdOHcbyTA-yucg0rIZh0w4hW6VbVZdRdqtBezvmaR8pKUj1b5Qw0FnOB429gXJbA3tCSKnioLbyMNvXupgPN_BmqtQZjt_r1VUrZfAUP7naK5P1DG23YpJCO8teltpkw5K6wnSjlhv_fPBhxQQc2Zd2di8Dkzs5XakoBb13YVZaa-6d_qLJvLY1iklWClET709-IT6iTvBlC7AmFps2-zaxM0Xzv8RnABC4bWeAuM8kJTXk77c_tP30k0hKQ6nSWxh9P39AF503fJHAcehzVjS7MZWBeK7iBoBEEUBXa11oogA4QuiUP2uICgHuSNvx-NeM5qXBsHfjGO8l62wJPcoDMLiWSp8z9LrM9_hkKZP3HRUsWsAH1S6ZRF5DbdJ6KsUei-6ALbAdIRw-MLnU7VPZU6Qn8bsbXhOiGVM8KSBEGwFJ69Ll3uQJH9phuCODHihbq9IpVOXiI_JD1n_wCgqkxp5yTn84vn9zsUUQ5VIbnQ8yF9wo19gaeLU68rwClFo-7OzvXHLvywGJXhf8apqU_o3oliCq18aDmJJrLzcOfUr1Uy5_6Sh3MlGpcv1r0MdolztUap6jY1vzdlfkDtEO8SyztjtO2QPbmJ38QNPbqVKfffRjS2eB-Y_SbqLXB6XTsX2m9Mo3YG4zUFVuRTF4JmCwtn68tFuTe9Z-cSEbDodqstv8SBLwbZzsZYUrmWldzoQuUaTH2u_Mvoh5crJrNlOB8RTGSAF8JGeyfO8p-XS0?></g></svg>