<svg xmlns="http://www.w3.org/2000/svg" xmlns:xlink="http://www.w3.org/1999/xlink" version="1.1" data-diagram-type="SEQUENCE" style="width:1571px;height:1559px;background:#FFFFFF;" width="1571px" height="1559px" viewBox="0 0 1571 1559" zoomAndPan="magnify" preserveAspectRatio="none" contentStyleType="text/css"><?plantuml 1.2026.8?><defs/><g font-family="sans-serif" lengthAdjust="spacing"><g class="title" data-source-line="2"><text x="499.296" y="34.424" fill="#00386C" font-size="18" textLength="570.858" font-weight="700" font-family="'Segoe UI'">GSB-CR — Séquence : transfert du portefeuille d'un visiteur (EX-72)</text></g><rect x="527.835" y="414.512" width="1023.615" height="773.867" fill="#FFF" style="stroke:#FFF;stroke-width:1;" rx="3" ry="3"/><rect x="527.835" y="414.512" width="1023.615" height="773.867" fill="none" style="stroke:#00529B;stroke-width:1.5;" rx="3" ry="3"/><rect x="1194.493" y="806.926" width="331.957" height="118.805" fill="#FFF" style="stroke:#FFF;stroke-width:1;" rx="3" ry="3"/><rect x="1194.493" y="806.926" width="331.957" height="118.805" fill="none" style="stroke:#00529B;stroke-width:1.5;" rx="3" ry="3"/><rect x="546.835" y="943.73" width="979.615" height="230.648" fill="#FFF" style="stroke:#FFF;stroke-width:1;" rx="3" ry="3"/><rect x="546.835" y="943.73" width="979.615" height="230.648" fill="none" style="stroke:#00529B;stroke-width:1.5;" rx="3" ry="3"/><rect x="36.243" y="1206.379" width="890.951" height="242.648" fill="#FFF" style="stroke:#FFF;stroke-width:1;" rx="3" ry="3"/><rect x="36.243" y="1206.379" width="890.951" height="242.648" fill="none" style="stroke:#00529B;stroke-width:1.5;" rx="3" ry="3"/><g><title>Administrateur</title><rect x="48.743" y="130.902" width="8" height="1342.125" fill="#000" fill-opacity="0"/><line x1="52.243" y1="130.902" x2="52.243" y2="1473.027" style="stroke:#00529B;stroke-width:0.5;stroke-dasharray:5,5;"/></g><g><title>.FrmAdministration</title><rect x="300.442" y="130.902" width="8" height="1342.125" fill="#000" fill-opacity="0"/><line x1="303.942" y1="130.902" x2="303.942" y2="1473.027" style="stroke:#00529B;stroke-width:0.5;stroke-dasharray:5,5;"/></g><g><title>.FrmFormulaire</title><rect x="559.335" y="184.824" width="8" height="1288.203" fill="#000" fill-opacity="0"/><line x1="562.835" y1="184.824" x2="562.835" y2="1473.027" style="stroke:#00529B;stroke-width:0.5;stroke-dasharray:5,5;"/></g><g><title></title><rect x="557.835" y="283.668" width="10" height="1038.516" fill="#FFF" style="stroke:#181818;stroke-width:1;"/></g><g><title>.ServiceAdministration</title><rect x="907.694" y="130.902" width="8" height="1342.125" fill="#000" fill-opacity="0"/><line x1="911.194" y1="130.902" x2="911.194" y2="1473.027" style="stroke:#00529B;stroke-width:0.5;stroke-dasharray:5,5;"/></g><g><title></title><rect x="906.194" y="343.59" width="10" height="858.789" fill="#FFF" style="stroke:#181818;stroke-width:1;"/></g><g><title>.AdministrationDao</title><rect x="1206.993" y="130.902" width="8" height="1342.125" fill="#000" fill-opacity="0"/><line x1="1210.493" y1="130.902" x2="1210.493" y2="1473.027" style="stroke:#00529B;stroke-width:0.5;stroke-dasharray:5,5;"/></g><g><title></title><rect x="1205.493" y="689.082" width="10" height="447.336" fill="#FFF" style="stroke:#181818;stroke-width:1;"/></g><g><title>Oracle</title><rect x="1506.95" y="130.902" width="8" height="1342.125" fill="#000" fill-opacity="0"/><line x1="1510.45" y1="130.902" x2="1510.45" y2="1473.027" style="stroke:#00529B;stroke-width:0.5;stroke-dasharray:5,5;"/></g><text x="10" y="127.891" fill="#000" font-size="12" textLength="78.486" font-family="'Segoe UI'">Administrateur</text><ellipse cx="52.243" cy="63.441" rx="8" ry="8" fill="#E8F1FA" style="stroke:#00529B;stroke-width:0.5;"/><path d="M52.243,71.441 L52.243,98.441 M39.243,79.441 L65.243,79.441 M52.243,98.441 L39.243,113.441 M52.243,98.441 L65.243,113.441" style="stroke:#00529B;stroke-width:0.5;" fill="none"/><rect x="246.47" y="99.941" width="114.945" height="29.961" fill="#E8F1FA" style="stroke:#00529B;stroke-width:0.5;" rx="3" ry="3"/><text x="253.47" y="119.891" fill="#00386C" font-size="12" textLength="100.945" font-family="'Segoe UI'">:FrmAdministration</text><rect x="845.258" y="99.941" width="131.873" height="29.961" fill="#E8F1FA" style="stroke:#00529B;stroke-width:0.5;" rx="3" ry="3"/><text x="852.258" y="119.891" fill="#00386C" font-size="12" textLength="117.873" font-family="'Segoe UI'">:ServiceAdministration</text><rect x="1152.429" y="99.941" width="116.129" height="29.961" fill="#E8F1FA" style="stroke:#00529B;stroke-width:0.5;" rx="3" ry="3"/><text x="1159.429" y="119.891" fill="#00386C" font-size="12" textLength="102.129" font-family="'Segoe UI'">:AdministrationDao</text><text x="1490.426" y="127.891" fill="#000" font-size="12" textLength="34.049" font-family="'Segoe UI'">Oracle</text><path d="M1492.45,78.941 C1492.45,68.941 1510.45,68.941 1510.45,68.941 C1510.45,68.941 1528.45,68.941 1528.45,78.941 L1528.45,104.941 C1528.45,114.941 1510.45,114.941 1510.45,114.941 C1510.45,114.941 1492.45,114.941 1492.45,104.941 L1492.45,78.941" style="stroke:#00529B;stroke-width:0.5;" fill="#FFF"/><path d="M1492.45,78.941 C1492.45,88.941 1510.45,88.941 1510.45,88.941 C1510.45,88.941 1528.45,88.941 1528.45,78.941" style="stroke:#00529B;stroke-width:0.5;" fill="none"/><text x="10" y="1485.977" fill="#000" font-size="12" textLength="78.486" font-family="'Segoe UI'">Administrateur</text><ellipse cx="52.243" cy="1497.488" rx="8" ry="8" fill="#E8F1FA" style="stroke:#00529B;stroke-width:0.5;"/><path d="M52.243,1505.488 L52.243,1532.488 M39.243,1513.488 L65.243,1513.488 M52.243,1532.488 L39.243,1547.488 M52.243,1532.488 L65.243,1547.488" style="stroke:#00529B;stroke-width:0.5;" fill="none"/><rect x="246.47" y="1473.027" width="114.945" height="29.961" fill="#E8F1FA" style="stroke:#00529B;stroke-width:0.5;" rx="3" ry="3"/><text x="253.47" y="1492.977" fill="#00386C" font-size="12" textLength="100.945" font-family="'Segoe UI'">:FrmAdministration</text><rect x="516.073" y="1473.027" width="93.523" height="29.961" fill="#E8F1FA" style="stroke:#00529B;stroke-width:0.5;" rx="3" ry="3"/><text x="523.073" y="1492.977" fill="#00386C" font-size="12" textLength="79.523" font-family="'Segoe UI'">:FrmFormulaire</text><rect x="845.258" y="1473.027" width="131.873" height="29.961" fill="#E8F1FA" style="stroke:#00529B;stroke-width:0.5;" rx="3" ry="3"/><text x="852.258" y="1492.977" fill="#00386C" font-size="12" textLength="117.873" font-family="'Segoe UI'">:ServiceAdministration</text><rect x="1152.429" y="1473.027" width="116.129" height="29.961" fill="#E8F1FA" style="stroke:#00529B;stroke-width:0.5;" rx="3" ry="3"/><text x="1159.429" y="1492.977" fill="#00386C" font-size="12" textLength="102.129" font-family="'Segoe UI'">:AdministrationDao</text><text x="1490.426" y="1485.977" fill="#000" font-size="12" textLength="34.049" font-family="'Segoe UI'">Oracle</text><path d="M1492.45,1498.988 C1492.45,1488.988 1510.45,1488.988 1510.45,1488.988 C1510.45,1488.988 1528.45,1488.988 1528.45,1498.988 L1528.45,1524.988 C1528.45,1534.988 1510.45,1534.988 1510.45,1534.988 C1510.45,1534.988 1492.45,1534.988 1492.45,1524.988 L1492.45,1498.988" style="stroke:#00529B;stroke-width:0.5;" fill="#FFF"/><path d="M1492.45,1498.988 C1492.45,1508.988 1510.45,1508.988 1510.45,1508.988 C1510.45,1508.988 1528.45,1508.988 1528.45,1498.988" style="stroke:#00529B;stroke-width:0.5;" fill="none"/><polygon points="291.942,172.824,301.942,176.824,291.942,180.824,295.942,176.824" fill="#00529B" style="stroke:#00529B;stroke-width:1;stroke-linejoin:miter;stroke-miterlimit:10;"/><line x1="52.243" y1="176.824" x2="297.942" y2="176.824" style="stroke:#00529B;stroke-width:1;"/><text x="59.243" y="163.832" fill="#38404A" font-size="12" font-weight="700" font-family="'Segoe UI'">1</text><text x="70.146" y="155.852" fill="#38404A" font-size="12" textLength="126.24" font-family="'Segoe UI'">choisit le visiteur source</text><text x="70.146" y="171.813" fill="#38404A" font-size="12" textLength="216.797" font-family="'Segoe UI'">clique « Transférer tout le portefeuille… »</text><rect x="516.073" y="184.824" width="93.523" height="29.961" fill="#E8F1FA" style="stroke:#00529B;stroke-width:0.5;" rx="3" ry="3"/><text x="523.073" y="204.773" fill="#00386C" font-size="12" textLength="79.523" font-family="'Segoe UI'">:FrmFormulaire</text><polygon points="504.073,202.785,514.073,206.785,504.073,210.785,508.073,206.785" fill="#00529B" style="stroke:#00529B;stroke-width:1;stroke-linejoin:miter;stroke-miterlimit:10;"/><line x1="303.942" y1="206.785" x2="510.073" y2="206.785" style="stroke:#00529B;stroke-width:1;"/><text x="310.942" y="201.773" fill="#38404A" font-size="12" font-weight="700" font-family="'Segoe UI'">2</text><text x="321.845" y="201.773" fill="#38404A" font-size="12" textLength="177.229" font-family="'Segoe UI'">New(titre, sous-titre, "Transférer")</text><polygon points="550.835,249.707,560.835,253.707,550.835,257.707,554.835,253.707" fill="#00529B" style="stroke:#00529B;stroke-width:1;stroke-linejoin:miter;stroke-miterlimit:10;"/><line x1="303.942" y1="253.707" x2="556.835" y2="253.707" style="stroke:#00529B;stroke-width:1;"/><text x="310.942" y="240.715" fill="#38404A" font-size="12" font-weight="700" font-family="'Segoe UI'">3</text><text x="321.845" y="232.734" fill="#38404A" font-size="12" textLength="199.008" font-family="'Segoe UI'">AjouterListe("vers", visiteurs en poste)</text><text x="321.845" y="248.695" fill="#38404A" font-size="12" textLength="192.1" font-family="'Segoe UI'">(même région proposée en premier)</text><polygon points="545.835,279.668,555.835,283.668,545.835,287.668,549.835,283.668" fill="#00529B" style="stroke:#00529B;stroke-width:1;stroke-linejoin:miter;stroke-miterlimit:10;"/><line x1="303.942" y1="283.668" x2="551.835" y2="283.668" style="stroke:#00529B;stroke-width:1;"/><text x="310.942" y="278.656" fill="#38404A" font-size="12" font-weight="700" font-family="'Segoe UI'">4</text><text x="321.845" y="278.656" fill="#38404A" font-size="12" textLength="70.541" font-family="'Segoe UI'">ShowDialog()</text><polygon points="545.835,309.629,555.835,313.629,545.835,317.629,549.835,313.629" fill="#00529B" style="stroke:#00529B;stroke-width:1;stroke-linejoin:miter;stroke-miterlimit:10;"/><line x1="52.243" y1="313.629" x2="551.835" y2="313.629" style="stroke:#00529B;stroke-width:1;"/><text x="59.243" y="308.617" fill="#38404A" font-size="12" font-weight="700" font-family="'Segoe UI'">5</text><text x="70.146" y="308.617" fill="#38404A" font-size="12" textLength="148.816" font-family="'Segoe UI'">choisit le destinataire, valide</text><polygon points="894.194,339.59,904.194,343.59,894.194,347.59,898.194,343.59" fill="#00529B" style="stroke:#00529B;stroke-width:1;stroke-linejoin:miter;stroke-miterlimit:10;"/><line x1="567.835" y1="343.59" x2="900.194" y2="343.59" style="stroke:#00529B;stroke-width:1;"/><text x="574.835" y="338.578" fill="#38404A" font-size="12" font-weight="700" font-family="'Segoe UI'">6</text><text x="585.737" y="338.578" fill="#38404A" font-size="12" textLength="173.619" font-family="'Segoe UI'">TransfererPortefeuille(u, de, vers)</text><line x1="916.194" y1="389.512" x2="958.194" y2="389.512" style="stroke:#00529B;stroke-width:1;"/><line x1="958.194" y1="389.512" x2="958.194" y2="402.512" style="stroke:#00529B;stroke-width:1;"/><line x1="917.194" y1="402.512" x2="958.194" y2="402.512" style="stroke:#00529B;stroke-width:1;"/><polygon points="927.194,398.512,917.194,402.512,927.194,406.512,923.194,402.512" fill="#00529B" style="stroke:#00529B;stroke-width:1;stroke-linejoin:miter;stroke-miterlimit:10;"/><text x="923.194" y="376.52" fill="#38404A" font-size="12" font-weight="700" font-family="'Segoe UI'">7</text><text x="934.097" y="368.539" fill="#38404A" font-size="12" textLength="82.143" font-family="'Segoe UI'">VerifierAcces(u)</text><text x="934.097" y="384.5" fill="#38404A" font-size="12" textLength="269.396" font-family="'Segoe UI'">[profil Administrateur sinon ErreurMetierException]</text><path d="M530.835,414.512 L587.372,414.512 L587.372,422.473 L577.372,432.473 L527.835,432.473 L527.835,417.512 A3,3 0 0 1 530.835,414.512" style="stroke:#00529B;stroke-width:1.5;" fill="#E8F1FA"/><rect x="527.835" y="414.512" width="1023.615" height="773.867" fill="none" style="stroke:#00529B;stroke-width:1.5;" rx="3" ry="3"/><text x="542.835" y="428.461" fill="#000" font-size="12" textLength="14.537" font-weight="700" font-family="'Segoe UI'">alt</text><text x="602.372" y="429.461" fill="#000" font-size="12" textLength="60.938" font-weight="700" font-family="'Segoe UI'">[de = vers]</text><polygon points="578.835,461.395,568.835,465.395,578.835,469.395,574.835,465.395" fill="#00529B" style="stroke:#00529B;stroke-width:1;stroke-linejoin:miter;stroke-miterlimit:10;"/><line x1="572.835" y1="465.395" x2="905.194" y2="465.395" style="stroke:#00529B;stroke-width:1;stroke-dasharray:2,2;"/><text x="584.835" y="460.383" fill="#38404A" font-size="12" font-weight="700" font-family="'Segoe UI'">8</text><text x="595.737" y="460.383" fill="#38404A" font-size="12" textLength="264.428" font-family="'Segoe UI'">Echec("Choisissez deux collaborateurs différents.")</text><line x1="527.835" y1="474.395" x2="1551.45" y2="474.395" style="stroke:#00529B;stroke-width:1;stroke-dasharray:2,2;"/><text x="532.835" y="489.344" fill="#000" font-size="12" textLength="248.643" font-weight="700" font-family="'Segoe UI'">[destinataire ni visiteur ni délégué en poste]</text><polygon points="1198.493,513.316,1208.493,517.316,1198.493,521.316,1202.493,517.316" fill="#00529B" style="stroke:#00529B;stroke-width:1;stroke-linejoin:miter;stroke-miterlimit:10;"/><line x1="916.194" y1="517.316" x2="1204.493" y2="517.316" style="stroke:#00529B;stroke-width:1;"/><text x="923.194" y="512.305" fill="#38404A" font-size="12" font-weight="700" font-family="'Segoe UI'">9</text><text x="934.097" y="512.305" fill="#38404A" font-size="12" textLength="112.541" font-family="'Segoe UI'">ListerCollaborateurs()</text><polygon points="927.194,543.277,917.194,547.277,927.194,551.277,923.194,547.277" fill="#00529B" style="stroke:#00529B;stroke-width:1;stroke-linejoin:miter;stroke-miterlimit:10;"/><line x1="921.194" y1="547.277" x2="1209.493" y2="547.277" style="stroke:#00529B;stroke-width:1;stroke-dasharray:2,2;"/><text x="933.194" y="542.266" fill="#38404A" font-size="12" textLength="13.805" font-weight="700" font-family="'Segoe UI'">10</text><text x="950.999" y="542.266" fill="#38404A" font-size="12" textLength="30.363" font-family="'Segoe UI'">fiches</text><polygon points="578.835,573.238,568.835,577.238,578.835,581.238,574.835,577.238" fill="#00529B" style="stroke:#00529B;stroke-width:1;stroke-linejoin:miter;stroke-miterlimit:10;"/><line x1="572.835" y1="577.238" x2="905.194" y2="577.238" style="stroke:#00529B;stroke-width:1;stroke-dasharray:2,2;"/><text x="584.835" y="572.227" fill="#38404A" font-size="12" textLength="13.805" font-weight="700" font-family="'Segoe UI'">11</text><text x="602.64" y="572.227" fill="#38404A" font-size="12" textLength="296.555" font-family="'Segoe UI'">Echec("…confié à un visiteur ou à un délégué en poste.")</text><line x1="527.835" y1="586.238" x2="1551.45" y2="586.238" style="stroke:#00529B;stroke-width:1;stroke-dasharray:2,2;"/><text x="532.835" y="601.188" fill="#000" font-size="12" textLength="75.791" font-weight="700" font-family="'Segoe UI'">[cas nominal]</text><polygon points="1198.493,625.16,1208.493,629.16,1198.493,633.16,1202.493,629.16" fill="#00529B" style="stroke:#00529B;stroke-width:1;stroke-linejoin:miter;stroke-miterlimit:10;"/><line x1="916.194" y1="629.16" x2="1204.493" y2="629.16" style="stroke:#00529B;stroke-width:1;"/><text x="923.194" y="624.148" fill="#38404A" font-size="12" textLength="13.805" font-weight="700" font-family="'Segoe UI'">12</text><text x="940.999" y="624.148" fill="#38404A" font-size="12" textLength="112.541" font-family="'Segoe UI'">ListerCollaborateurs()</text><polygon points="927.194,655.121,917.194,659.121,927.194,663.121,923.194,659.121" fill="#00529B" style="stroke:#00529B;stroke-width:1;stroke-linejoin:miter;stroke-miterlimit:10;"/><line x1="921.194" y1="659.121" x2="1209.493" y2="659.121" style="stroke:#00529B;stroke-width:1;stroke-dasharray:2,2;"/><text x="933.194" y="654.109" fill="#38404A" font-size="12" textLength="13.805" font-weight="700" font-family="'Segoe UI'">13</text><text x="950.999" y="654.109" fill="#38404A" font-size="12" textLength="30.363" font-family="'Segoe UI'">fiches</text><polygon points="1193.493,685.082,1203.493,689.082,1193.493,693.082,1197.493,689.082" fill="#00529B" style="stroke:#00529B;stroke-width:1;stroke-linejoin:miter;stroke-miterlimit:10;"/><line x1="916.194" y1="689.082" x2="1199.493" y2="689.082" style="stroke:#00529B;stroke-width:1;"/><text x="923.194" y="684.07" fill="#38404A" font-size="12" textLength="13.805" font-weight="700" font-family="'Segoe UI'">14</text><text x="940.999" y="684.07" fill="#38404A" font-size="12" textLength="226.939" font-family="'Segoe UI'">TransfererPortefeuille(de, vers, aujourd'hui)</text><polygon points="1498.45,715.043,1508.45,719.043,1498.45,723.043,1502.45,719.043" fill="#00529B" style="stroke:#00529B;stroke-width:1;stroke-linejoin:miter;stroke-miterlimit:10;"/><line x1="1215.493" y1="719.043" x2="1504.45" y2="719.043" style="stroke:#00529B;stroke-width:1;"/><text x="1222.493" y="714.031" fill="#38404A" font-size="12" textLength="13.805" font-weight="700" font-family="'Segoe UI'">15</text><text x="1240.298" y="714.031" fill="#38404A" font-size="12" textLength="102.551" font-family="'Segoe UI'">BEGIN (transaction)</text><polygon points="1498.45,760.965,1508.45,764.965,1498.45,768.965,1502.45,764.965" fill="#00529B" style="stroke:#00529B;stroke-width:1;stroke-linejoin:miter;stroke-miterlimit:10;"/><line x1="1215.493" y1="764.965" x2="1504.45" y2="764.965" style="stroke:#00529B;stroke-width:1;"/><text x="1222.493" y="751.973" fill="#38404A" font-size="12" textLength="13.805" font-weight="700" font-family="'Segoe UI'">16</text><text x="1240.298" y="743.992" fill="#38404A" font-size="12" textLength="187.582" font-family="'Segoe UI'">select pra_num from PORTEFEUILLE</text><text x="1240.298" y="759.953" fill="#38404A" font-size="12" textLength="258.07" font-family="'Segoe UI'">where col_matricule = :de and ptf_date_fin is null</text><polygon points="1226.493,790.926,1216.493,794.926,1226.493,798.926,1222.493,794.926" fill="#00529B" style="stroke:#00529B;stroke-width:1;stroke-linejoin:miter;stroke-miterlimit:10;"/><line x1="1220.493" y1="794.926" x2="1509.45" y2="794.926" style="stroke:#00529B;stroke-width:1;stroke-dasharray:2,2;"/><text x="1232.493" y="789.914" fill="#38404A" font-size="12" textLength="13.805" font-weight="700" font-family="'Segoe UI'">17</text><text x="1250.298" y="789.914" fill="#38404A" font-size="12" textLength="60.99" font-family="'Segoe UI'">n praticiens</text><path d="M1197.493,806.926 L1265.017,806.926 L1265.017,814.887 L1255.017,824.887 L1194.493,824.887 L1194.493,809.926 A3,3 0 0 1 1197.493,806.926" style="stroke:#00529B;stroke-width:1.5;" fill="#E8F1FA"/><rect x="1194.493" y="806.926" width="331.957" height="118.805" fill="none" style="stroke:#00529B;stroke-width:1.5;" rx="3" ry="3"/><text x="1209.493" y="820.875" fill="#000" font-size="12" textLength="25.523" font-weight="700" font-family="'Segoe UI'">loop</text><text x="1280.017" y="821.875" fill="#000" font-size="12" textLength="132.592" font-weight="700" font-family="'Segoe UI'">[pour chaque praticien]</text><polygon points="1498.45,853.809,1508.45,857.809,1498.45,861.809,1502.45,857.809" fill="#00529B" style="stroke:#00529B;stroke-width:1;stroke-linejoin:miter;stroke-miterlimit:10;"/><line x1="1215.493" y1="857.809" x2="1504.45" y2="857.809" style="stroke:#00529B;stroke-width:1;"/><text x="1222.493" y="852.797" fill="#38404A" font-size="12" textLength="13.805" font-weight="700" font-family="'Segoe UI'">18</text><text x="1240.298" y="852.797" fill="#38404A" font-size="12" textLength="232.682" font-family="'Segoe UI'">delete suivi en cours commencé aujourd'hui</text><polygon points="1498.45,883.77,1508.45,887.77,1498.45,891.77,1502.45,887.77" fill="#00529B" style="stroke:#00529B;stroke-width:1;stroke-linejoin:miter;stroke-miterlimit:10;"/><line x1="1215.493" y1="887.77" x2="1504.45" y2="887.77" style="stroke:#00529B;stroke-width:1;"/><text x="1222.493" y="882.758" fill="#38404A" font-size="12" textLength="13.805" font-weight="700" font-family="'Segoe UI'">19</text><text x="1240.298" y="882.758" fill="#38404A" font-size="12" textLength="225.141" font-family="'Segoe UI'">update suivi en cours : ptf_date_fin = veille</text><polygon points="1498.45,913.73,1508.45,917.73,1498.45,921.73,1502.45,917.73" fill="#00529B" style="stroke:#00529B;stroke-width:1;stroke-linejoin:miter;stroke-miterlimit:10;"/><line x1="1215.493" y1="917.73" x2="1504.45" y2="917.73" style="stroke:#00529B;stroke-width:1;"/><text x="1222.493" y="912.719" fill="#38404A" font-size="12" textLength="13.805" font-weight="700" font-family="'Segoe UI'">20</text><text x="1240.298" y="912.719" fill="#38404A" font-size="12" textLength="258.152" font-family="'Segoe UI'">insert PORTEFEUILLE (praticien, vers, aujourd'hui)</text><path d="M549.835,943.73 L606.372,943.73 L606.372,951.691 L596.372,961.691 L546.835,961.691 L546.835,946.73 A3,3 0 0 1 549.835,943.73" style="stroke:#00529B;stroke-width:1.5;" fill="#E8F1FA"/><rect x="546.835" y="943.73" width="979.615" height="230.648" fill="none" style="stroke:#00529B;stroke-width:1.5;" rx="3" ry="3"/><text x="561.835" y="957.68" fill="#000" font-size="12" textLength="14.537" font-weight="700" font-family="'Segoe UI'">alt</text><text x="621.372" y="958.68" fill="#000" font-size="12" textLength="82.734" font-weight="700" font-family="'Segoe UI'">[erreur Oracle]</text><polygon points="1498.45,990.613,1508.45,994.613,1498.45,998.613,1502.45,994.613" fill="#00529B" style="stroke:#00529B;stroke-width:1;stroke-linejoin:miter;stroke-miterlimit:10;"/><line x1="1215.493" y1="994.613" x2="1504.45" y2="994.613" style="stroke:#00529B;stroke-width:1;"/><text x="1222.493" y="989.602" fill="#38404A" font-size="12" textLength="13.805" font-weight="700" font-family="'Segoe UI'">21</text><text x="1240.298" y="989.602" fill="#38404A" font-size="12" textLength="56.531" font-family="'Segoe UI'">ROLLBACK</text><polygon points="927.194,1020.574,917.194,1024.574,927.194,1028.574,923.194,1024.574" fill="#00529B" style="stroke:#00529B;stroke-width:1;stroke-linejoin:miter;stroke-miterlimit:10;"/><line x1="921.194" y1="1024.574" x2="1204.493" y2="1024.574" style="stroke:#00529B;stroke-width:1;stroke-dasharray:2,2;"/><text x="933.194" y="1019.563" fill="#38404A" font-size="12" textLength="13.805" font-weight="700" font-family="'Segoe UI'">22</text><text x="950.999" y="1019.563" fill="#38404A" font-size="12" textLength="128.109" font-family="'Segoe UI'">AccesDonneesException</text><polygon points="578.835,1050.535,568.835,1054.535,578.835,1058.535,574.835,1054.535" fill="#00529B" style="stroke:#00529B;stroke-width:1;stroke-linejoin:miter;stroke-miterlimit:10;"/><line x1="572.835" y1="1054.535" x2="905.194" y2="1054.535" style="stroke:#00529B;stroke-width:1;stroke-dasharray:2,2;"/><text x="584.835" y="1049.523" fill="#38404A" font-size="12" textLength="13.805" font-weight="700" font-family="'Segoe UI'">23</text><text x="602.64" y="1049.523" fill="#38404A" font-size="12" textLength="236.982" font-family="'Segoe UI'">Echec("Transfert du portefeuille impossible.")</text><line x1="546.835" y1="1063.535" x2="1526.45" y2="1063.535" style="stroke:#00529B;stroke-width:1;stroke-dasharray:2,2;"/><text x="551.835" y="1078.484" fill="#000" font-size="12" textLength="44.689" font-weight="700" font-family="'Segoe UI'">[succès]</text><polygon points="1498.45,1102.457,1508.45,1106.457,1498.45,1110.457,1502.45,1106.457" fill="#00529B" style="stroke:#00529B;stroke-width:1;stroke-linejoin:miter;stroke-miterlimit:10;"/><line x1="1215.493" y1="1106.457" x2="1504.45" y2="1106.457" style="stroke:#00529B;stroke-width:1;"/><text x="1222.493" y="1101.445" fill="#38404A" font-size="12" textLength="13.805" font-weight="700" font-family="'Segoe UI'">24</text><text x="1240.298" y="1101.445" fill="#38404A" font-size="12" textLength="47.508" font-family="'Segoe UI'">COMMIT</text><polygon points="927.194,1132.418,917.194,1136.418,927.194,1140.418,923.194,1136.418" fill="#00529B" style="stroke:#00529B;stroke-width:1;stroke-linejoin:miter;stroke-miterlimit:10;"/><line x1="921.194" y1="1136.418" x2="1204.493" y2="1136.418" style="stroke:#00529B;stroke-width:1;stroke-dasharray:2,2;"/><text x="933.194" y="1131.406" fill="#38404A" font-size="12" textLength="13.805" font-weight="700" font-family="'Segoe UI'">25</text><text x="950.999" y="1131.406" fill="#38404A" font-size="12" font-family="'Segoe UI'">n</text><polygon points="578.835,1162.379,568.835,1166.379,578.835,1170.379,574.835,1166.379" fill="#00529B" style="stroke:#00529B;stroke-width:1;stroke-linejoin:miter;stroke-miterlimit:10;"/><line x1="572.835" y1="1166.379" x2="905.194" y2="1166.379" style="stroke:#00529B;stroke-width:1;stroke-dasharray:2,2;"/><text x="584.835" y="1161.367" fill="#38404A" font-size="12" textLength="13.805" font-weight="700" font-family="'Segoe UI'">26</text><text x="602.64" y="1161.367" fill="#38404A" font-size="12" textLength="204.305" font-family="'Segoe UI'">Succes("n praticien(s) transféré(s) à …")</text><path d="M39.243,1206.379 L95.78,1206.379 L95.78,1214.34 L85.78,1224.34 L36.243,1224.34 L36.243,1209.379 A3,3 0 0 1 39.243,1206.379" style="stroke:#00529B;stroke-width:1.5;" fill="#E8F1FA"/><rect x="36.243" y="1206.379" width="890.951" height="242.648" fill="none" style="stroke:#00529B;stroke-width:1.5;" rx="3" ry="3"/><text x="51.243" y="1220.328" fill="#000" font-size="12" textLength="14.537" font-weight="700" font-family="'Segoe UI'">alt</text><text x="110.78" y="1221.328" fill="#000" font-size="12" textLength="103.975" font-weight="700" font-family="'Segoe UI'">[résultat en échec]</text><line x1="567.835" y1="1257.262" x2="609.835" y2="1257.262" style="stroke:#00529B;stroke-width:1;"/><line x1="609.835" y1="1257.262" x2="609.835" y2="1270.262" style="stroke:#00529B;stroke-width:1;"/><line x1="568.835" y1="1270.262" x2="609.835" y2="1270.262" style="stroke:#00529B;stroke-width:1;"/><polygon points="578.835,1266.262,568.835,1270.262,578.835,1274.262,574.835,1270.262" fill="#00529B" style="stroke:#00529B;stroke-width:1;stroke-linejoin:miter;stroke-miterlimit:10;"/><text x="574.835" y="1252.25" fill="#38404A" font-size="12" textLength="13.805" font-weight="700" font-family="'Segoe UI'">27</text><text x="592.64" y="1252.25" fill="#38404A" font-size="12" textLength="162.07" font-family="'Segoe UI'">affiche les erreurs, reste ouvert</text><line x1="36.243" y1="1279.262" x2="927.194" y2="1279.262" style="stroke:#00529B;stroke-width:1;stroke-dasharray:2,2;"/><text x="41.243" y="1294.211" fill="#000" font-size="12" textLength="44.689" font-weight="700" font-family="'Segoe UI'">[succès]</text><polygon points="314.942,1318.184,304.942,1322.184,314.942,1326.184,310.942,1322.184" fill="#00529B" style="stroke:#00529B;stroke-width:1;stroke-linejoin:miter;stroke-miterlimit:10;"/><line x1="308.942" y1="1322.184" x2="556.835" y2="1322.184" style="stroke:#00529B;stroke-width:1;stroke-dasharray:2,2;"/><text x="320.942" y="1317.172" fill="#38404A" font-size="12" textLength="13.805" font-weight="700" font-family="'Segoe UI'">28</text><text x="338.747" y="1317.172" fill="#38404A" font-size="12" textLength="142.611" font-family="'Segoe UI'">DialogResult.OK + Resultat</text><line x1="303.942" y1="1352.145" x2="345.942" y2="1352.145" style="stroke:#00529B;stroke-width:1;"/><line x1="345.942" y1="1352.145" x2="345.942" y2="1365.145" style="stroke:#00529B;stroke-width:1;"/><line x1="304.942" y1="1365.145" x2="345.942" y2="1365.145" style="stroke:#00529B;stroke-width:1;"/><polygon points="314.942,1361.145,304.942,1365.145,314.942,1369.145,310.942,1365.145" fill="#00529B" style="stroke:#00529B;stroke-width:1;stroke-linejoin:miter;stroke-miterlimit:10;"/><text x="310.942" y="1347.133" fill="#38404A" font-size="12" textLength="13.805" font-weight="700" font-family="'Segoe UI'">29</text><text x="328.747" y="1347.133" fill="#38404A" font-size="12" textLength="202.465" font-family="'Segoe UI'">affiche le message dans la barre d'état</text><polygon points="899.194,1407.066,909.194,1411.066,899.194,1415.066,903.194,1411.066" fill="#00529B" style="stroke:#00529B;stroke-width:1;stroke-linejoin:miter;stroke-miterlimit:10;"/><line x1="303.942" y1="1411.066" x2="905.194" y2="1411.066" style="stroke:#00529B;stroke-width:1;"/><text x="310.942" y="1398.074" fill="#38404A" font-size="12" textLength="13.805" font-weight="700" font-family="'Segoe UI'">30</text><text x="328.747" y="1390.094" fill="#38404A" font-size="12" textLength="207.697" font-family="'Segoe UI'">Collaborateurs(u), PortefeuilleDe(u, de),</text><text x="328.747" y="1406.055" fill="#38404A" font-size="12" textLength="128.637" font-family="'Segoe UI'">PraticiensSansVisiteur(u)</text><polygon points="63.243,1437.027,53.243,1441.027,63.243,1445.027,59.243,1441.027" fill="#00529B" style="stroke:#00529B;stroke-width:1;stroke-linejoin:miter;stroke-miterlimit:10;"/><line x1="57.243" y1="1441.027" x2="302.942" y2="1441.027" style="stroke:#00529B;stroke-width:1;stroke-dasharray:2,2;"/><text x="69.243" y="1436.016" fill="#38404A" font-size="12" textLength="13.805" font-weight="700" font-family="'Segoe UI'">31</text><text x="87.048" y="1436.016" fill="#38404A" font-size="12" textLength="83.449" font-family="'Segoe UI'">listes rafraîchies</text><?plantuml-src hLPBRXj74DtFAIgpCUcGMcGJW404I1Hb29OiGLIC054Wj7fgn0vwkfd-K7PMFaGEa5KG9a0ka9td9Zv9NW_9qP2KTbaG74xNzxsgr_nA6QbZmUJ3Hyq7AbOw2ofefZVJu-7uchvy-esczVANo4OoZIWuONp9Bb0HQMvTu9AZqd0eNaL32-LLuEYeD_bX-Eqt_Kp4O4sixjbbcP31EigFYaePvH4fMUOaFE5LDXSkAAdcmWJAHwUkwjWfQnexlDstExMkYbeenoiRksSqPRTGafy9E5t87TjjenDX6pjyPuK8ubvuflpI2QbNsOwB8ilWGyF3L1qGaZERG210qgBXRNIIRu6r0fBq-M-wQN2ibuuT1HiRyowSNpxzGP__pLB851azqUlNYFwE7tiWoF4W1VN3zNFUYPVtjzn6TFGp4h0xHrVSonViV3veQ_F41fbnrByrlQh-gs9ozV81pTFSMPpKIsvi75UAtMxmwSm-dYYXxKEldnXM2z2w8c43Yzt5fM0Vb06SAjM-45eLd3LcC0SbiBvPpncxgmuglJY0CrpGGoTROZ6vjTxlsQaInHv9oRuNqTcFwALKchQ7Zxmow7FY77vSS83Bv8FaUQB-9moinfWpVTVaowW9FdpgQ29dB7lvk6dCU_uLnl43IQkrkBUh39uALJQycE0FG0rhlmq06VKqA7WkwgK6_h5UjiniKX-cEKJYXaattie3zAav7hOeb0e5lbmtHanQKoeagd-dxlBQk7xpJ2rj3nBJRopG5Ff_gM_Z_0Bp6ze792BcsHMlPb6bcEqKf1rTfpXCUubOnvCtP--eruXMihEclslYMRCCc6vn1vsYqjcAhYwlRoQda-_Fpiydj-PnXc8IgtUL24x9gDD8Z30OmXGq3-KTb87lIcL80PAe4nuf-B3jAMsFI2B39lMhhPq3JI0jPo89GdkAmvtw2jI7vdnK2vL8a3ODbRHL1KK6BnqqzftZF9MswppQBZgDTu9utrqPdvI-2mVrsbfVu8DDaLZ1wd2pLhHIo_tervVdvyT7uxTF9-raD7jxOerXzkr2DdRFZ_BDYxUIgZ2rNjthPd1HNHfT7wMi__Jx9OqlBoxERfufQ9Myu9rXswjd6Xl5oJk4ztn_VMj21Ufb-edbmlBb6xJIfnCwgLaZFR3sKGSH4dNrChKAZurEhZEAibaZoAfV0mvA7FI5iSOWA6GxBQ_ys-jgfTtNd38TNBwbhsdrB4AsrN2Zw4GRyT_9JHLxBnwWR6YKjA1xWLhmdw1UhYATTiLzHnbYVq3TNJzPwtn_S6kkshsP8lBxjKB1PHCJGTCzCoATHCUJ4wKJzJzofY0jGFO_?></g></svg>